<svg width="140" height="32" viewBox="0 0 140 32" fill="none" xmlns="http://www.w3.org/2000/svg">
<path fill-rule="evenodd" clip-rule="evenodd" d="M6.61408 9.60174C7.79144 9.25685 8.65217 8.15862 8.65217 6.85714C8.65217 5.27919 7.38689 4 5.82609 4C4.26528 4 3 5.27919 3 6.85714C3 8.15669 3.85819 9.2536 5.03287 9.60021C5.18297 10.1835 5.33775 10.934 5.33775 11.5488C5.33775 12.0756 5.22412 12.7026 5.09716 13.2388C3.88964 13.5638 3 14.6769 3 16C3 17.1945 3.72509 18.2178 4.75456 18.6446C5.0382 19.2068 5.35657 19.9852 5.35657 20.6471C5.35657 21.2682 5.08051 21.9564 4.8157 22.4737C3.75391 22.8848 3 23.9248 3 25.1429C3 26.7208 4.26528 28 5.82609 28C7.38689 28 8.65217 26.7208 8.65217 25.1429C8.65217 23.935 7.91079 22.9022 6.86298 22.4842C6.59955 21.9511 6.31737 21.2413 6.31737 20.6471C6.31737 20.0166 6.63845 19.2143 6.91735 18.6364C7.93634 18.2047 8.65217 17.1869 8.65217 16C8.65217 14.674 7.75871 13.559 6.54722 13.2367C6.4116 12.6872 6.28838 12.05 6.28838 11.5488C6.28838 10.966 6.45506 10.1999 6.61408 9.60174ZM12.6087 28C13.99 28 15.1399 26.9981 15.386 25.6739C15.5898 25.6315 15.7918 25.6062 15.984 25.6062C16.19 25.6062 16.4034 25.6348 16.6154 25.6821C16.8648 27.0022 18.0128 28 19.3913 28C20.9521 28 22.2174 26.7208 22.2174 25.1429C22.2174 23.5649 20.9521 22.2857 19.3913 22.2857C17.9999 22.2857 16.8434 23.3023 16.6087 24.6408C16.3948 24.6897 16.1829 24.7195 15.984 24.7195C15.7985 24.7195 15.598 24.6933 15.3928 24.6497C15.1617 23.3067 14.0031 22.2857 12.6087 22.2857C11.0479 22.2857 9.78259 23.5649 9.78259 25.1429C9.78259 26.7208 11.0479 28 12.6087 28ZM15.394 7.34357C15.1656 8.68982 14.0055 9.71428 12.6087 9.71428C11.0479 9.71428 9.78259 8.4351 9.78259 6.85714C9.78259 5.27919 11.0479 4 12.6087 4C13.9473 4 15.0685 4.94088 15.3606 6.20418C15.6034 6.25468 15.8431 6.28669 16.0606 6.28669C16.2432 6.28669 16.4377 6.26443 16.634 6.22779C16.9175 4.95262 18.0444 4 19.3913 4C20.9521 4 22.2174 5.27919 22.2174 6.85714C22.2174 8.4351 20.9521 9.71428 19.3913 9.71428C17.9852 9.71428 16.819 8.67618 16.6016 7.31672C16.4196 7.27909 16.2372 7.25669 16.0606 7.25669C15.8472 7.25669 15.6206 7.28993 15.394 7.34357Z" fill="#E76927"/>
<path d="M26.1739 9.71429C27.7347 9.71429 29 8.4351 29 6.85714C29 5.27919 27.7347 4 26.1739 4C24.6131 4 23.3478 5.27919 23.3478 6.85714C23.3478 7.42553 23.5119 7.95516 23.795 8.4002C23.5661 9.10095 23.1624 10.0714 22.4863 10.993C21.7129 12.0472 20.8374 12.8353 20.2775 13.2862C19.9987 13.1932 19.7008 13.1429 19.3913 13.1429C17.9974 13.1429 16.8393 14.163 16.6074 15.5051C16.3787 15.5553 16.1508 15.5861 15.9353 15.5861C15.7595 15.5861 15.5782 15.5659 15.397 15.5316C15.1759 14.1765 14.0117 13.1429 12.6087 13.1429C11.0479 13.1429 9.78259 14.422 9.78259 16C9.78259 17.578 11.0479 18.8571 12.6087 18.8571C14.0003 18.8571 15.157 17.8402 15.3914 16.5014C15.5777 16.4643 15.7615 16.4423 15.9353 16.4423C16.1469 16.4423 16.378 16.4753 16.6134 16.5285C16.8586 17.854 18.0091 18.8571 19.3913 18.8571C19.6554 18.8571 19.911 18.8205 20.1534 18.752C20.6266 19.1638 21.6575 20.1174 22.5253 21.3105C23.0747 22.0657 23.5105 22.8961 23.8181 23.564C23.5209 24.0163 23.3478 24.5592 23.3478 25.1429C23.3478 26.7208 24.6131 28 26.1739 28C27.7347 28 29 26.7208 29 25.1429C29 23.5649 27.7347 22.2857 26.1739 22.2857C25.8557 22.2857 25.5498 22.3389 25.2644 22.4369C24.7104 22.0099 24.0417 21.4007 23.4658 20.6088C22.5488 19.3482 22.0321 18.0587 21.8214 17.4594C22.0729 17.0322 22.2174 16.5332 22.2174 16C22.2174 15.4555 22.0667 14.9466 21.8053 14.5136C22.0967 13.8688 22.654 12.748 23.4262 11.6954C24.0503 10.8448 24.8076 10.106 25.3805 9.60017C25.6322 9.67445 25.8984 9.71429 26.1739 9.71429Z" fill="#181818"/>
<path d="M134.194 21.4421C132.682 21.4421 131.594 21.0772 130.93 20.3474C130.434 19.814 130.187 19.0982 130.187 18.2C130.187 17.9053 130.213 17.5895 130.265 17.2526L131.998 7.50526H135.172L134.605 11.021H140L139.511 13.9895H134.116L133.725 16.3684C133.673 16.6351 133.647 16.8737 133.647 17.0842C133.647 17.9684 134.038 18.4105 134.82 18.4105C135.237 18.4105 135.582 18.2211 135.856 17.8421C136.142 17.4632 136.338 16.9579 136.442 16.3263H139.687C139.14 19.7368 137.309 21.4421 134.194 21.4421Z" fill="#181818"/>
<path d="M128.008 18.4526C128.307 18.4526 128.575 18.3825 128.809 18.2421L128.711 20.6211C128.099 21.1684 127.402 21.4421 126.62 21.4421C125.434 21.4421 124.665 21.1474 124.313 20.5579C124.078 20.1649 123.961 19.7509 123.961 19.3158C123.961 18.8667 123.987 18.4737 124.039 18.1368L125.212 11.0211H128.535L127.441 17.6526C127.428 17.7368 127.421 17.814 127.421 17.8842C127.421 18.2632 127.617 18.4526 128.008 18.4526ZM125.603 7.58947C125.603 6.69123 125.786 6.0386 126.151 5.63158C126.529 5.21053 127.108 5 127.89 5C128.985 5 129.532 5.5193 129.532 6.55789C129.532 7.4421 129.343 8.08772 128.966 8.49474C128.601 8.90175 128.021 9.10526 127.226 9.10526C126.144 9.10526 125.603 8.6 125.603 7.58947Z" fill="#181818"/>
<path d="M124.64 5.98947L120.164 13.6316L122.158 21.1474H118.444L116.978 15.5895H115.433L114.515 21.1474H110.996L113.478 5.98947H116.997L115.961 12.3053H117.212L120.926 5.98947H124.64Z" fill="#E76927"/>
<path d="M99.813 21.4421C98.3013 21.4421 97.2131 21.0772 96.5485 20.3474C96.0533 19.814 95.8057 19.0982 95.8057 18.2C95.8057 17.9053 95.8317 17.5895 95.8839 17.2526L97.2131 9.10526L100.79 7.50526L100.224 11.021H105.619L105.13 13.9895H99.7349L99.3439 16.3684C99.2918 16.6351 99.2657 16.8737 99.2657 17.0842C99.2657 17.9684 99.6567 18.4105 100.439 18.4105C100.856 18.4105 101.201 18.2211 101.475 17.8421C101.761 17.4632 101.957 16.9579 102.061 16.3263H105.306C104.759 19.7368 102.928 21.4421 99.813 21.4421Z" fill="#181818"/>
<path d="M95.0692 13.1684C95.0692 13.6456 94.9911 14.1088 94.8347 14.5579C94.6913 15.007 94.548 15.3368 94.4046 15.5474L94.1896 15.8421H91.2378C91.5636 15.5193 91.7265 15.1193 91.7265 14.6421C91.7265 14.3895 91.6483 14.186 91.4919 14.0316C91.3486 13.8632 91.1466 13.779 90.8859 13.779C90.4428 13.779 90.0584 14.0175 89.7326 14.4947L88.6379 21.1474H85.3147L86.9763 11.0211H90.0649L89.8303 12.4316C90.5732 11.2947 91.4724 10.7263 92.528 10.7263C93.3751 10.7263 94.0071 10.9439 94.4242 11.3789C94.8542 11.814 95.0692 12.4105 95.0692 13.1684Z" fill="#181818"/>
<path d="M78.7513 21.4421C76.0406 21.4421 74.6853 20.4316 74.6853 18.4105C74.6853 18.1298 74.7114 17.8281 74.7635 17.5053L75.174 14.8947C75.3956 13.5474 75.969 12.5158 76.8943 11.8C77.8326 11.0702 79.0706 10.7053 80.6084 10.7053C83.2279 10.7053 84.5376 11.7719 84.5376 13.9053C84.5376 14.214 84.5115 14.5509 84.4594 14.9158L84.2248 16.4105H78.2626L78.1844 16.8947C78.1584 17.0632 78.1453 17.2175 78.1453 17.3579C78.1453 18.1298 78.5689 18.5158 79.416 18.5158C79.7287 18.5158 79.9959 18.4105 80.2174 18.2C80.439 17.9895 80.5693 17.7439 80.6084 17.4632L83.8534 17.5053C83.4233 20.1298 81.7227 21.4421 78.7513 21.4421ZM81.0971 15.1263C81.1492 14.8877 81.1753 14.6702 81.1753 14.4737C81.1753 14.2632 81.0906 14.0526 80.9212 13.8421C80.7518 13.6316 80.4781 13.5263 80.1002 13.5263C79.7353 13.5263 79.3964 13.6596 79.0836 13.9263C78.7839 14.193 78.5754 14.593 78.4581 15.1263H81.0971Z" fill="#181818"/>
<path d="M70.3226 10.7474C71.6519 10.7474 72.5707 11.1263 73.0789 11.8842C73.4438 12.4035 73.6263 13.0632 73.6263 13.8632C73.6263 14.186 73.5937 14.5298 73.5285 14.8947L73.1376 17.3579C72.916 18.6912 72.4403 19.7088 71.7105 20.4105C70.9807 21.0982 70.0685 21.4421 68.9738 21.4421C67.8791 21.4421 67.1167 21.1263 66.6867 20.4947L65.6311 27H62.3079L64.9273 11.0211H67.9377L67.84 11.5895C68.4525 11.0281 69.2801 10.7474 70.3226 10.7474ZM68.2896 18.4105C68.6545 18.4105 68.9933 18.2842 69.3061 18.0316C69.6189 17.7789 69.8144 17.4 69.8926 16.8947L70.1467 15.3158C70.1728 15.1754 70.1858 15 70.1858 14.7895C70.1858 14.5789 70.1011 14.3544 69.9317 14.1158C69.7622 13.8772 69.469 13.7579 69.052 13.7579C68.3743 13.7579 67.9312 13.9333 67.7227 14.2842L67.1363 17.8211C67.3187 18.214 67.7032 18.4105 68.2896 18.4105Z" fill="#181818"/>
<path d="M61.8977 21.1474H58.2618L56.8738 18.221L54.5281 21.1474H50.8921L55.1145 15.9684L52.5732 10.8737H56.2678L57.5971 13.7579L59.8843 10.8737H63.5789L59.3369 15.9895L61.8977 21.1474Z" fill="#181818"/>
<path d="M49.8132 21.1474H40L42.4826 5.98947H52.2958L51.7485 9.27368H45.4539L45.0043 12.1158H50.2042L49.6568 15.4H44.457L44.066 17.8632H50.3605L49.8132 21.1474Z" fill="#E76927"/>
</svg>
