<svg width="144" height="33" viewBox="0 0 144 33" fill="none" xmlns="http://www.w3.org/2000/svg">
<rect width="144" height="32" transform="translate(0 0.5)" fill="white"/>
<path d="M5.82617 4.5C7.38694 4.50005 8.65234 5.77949 8.65234 7.35742C8.65222 8.6587 7.79142 9.75662 6.61426 10.1016C6.45524 10.6998 6.28809 11.466 6.28809 12.0488C6.28809 12.5498 6.4113 13.1869 6.54688 13.7363C7.75836 14.0586 8.65234 15.174 8.65234 16.5C8.65234 17.6869 7.93599 18.7051 6.91699 19.1367C6.63814 19.7147 6.31738 20.5172 6.31738 21.1475C6.31751 21.7416 6.59991 22.4514 6.86328 22.9844C7.91083 23.4024 8.65223 24.435 8.65234 25.6426C8.65234 27.2205 7.38694 28.5 5.82617 28.5C4.26537 28.5 3 27.2205 3 25.6426C3.00012 24.4247 3.75383 23.3847 4.81543 22.9736C5.08018 22.4564 5.35632 21.7685 5.35645 21.1475C5.35645 20.4856 5.03852 19.7067 4.75488 19.1445C3.7254 18.7178 3 17.6945 3 16.5C3 15.1771 3.88944 14.0644 5.09668 13.7393C5.22364 13.2031 5.33789 12.5756 5.33789 12.0488C5.33789 11.4342 5.18327 10.6838 5.0332 10.1006C3.85861 9.754 3.00012 8.65685 3 7.35742C3 5.77947 4.26537 4.5 5.82617 4.5ZM19.3916 22.7861C20.9522 22.7863 22.2176 24.0649 22.2178 25.6426C22.2178 27.2204 20.9523 28.4998 19.3916 28.5C18.0131 28.5 16.8646 27.5018 16.6152 26.1816C16.4034 26.1344 16.1901 26.1065 15.9844 26.1064C15.7922 26.1064 15.5894 26.1314 15.3857 26.1738C15.1396 27.498 13.9897 28.5 12.6084 28.5C11.0477 28.4998 9.78223 27.2204 9.78223 25.6426C9.78238 24.0648 11.0478 22.7863 12.6084 22.7861C14.0027 22.7861 15.1613 23.8066 15.3926 25.1494C15.5978 25.193 15.7989 25.2197 15.9844 25.2197C16.1831 25.2197 16.3948 25.1894 16.6084 25.1406C16.8431 23.8021 18.0003 22.7861 19.3916 22.7861ZM19.3916 4.5C20.9523 4.50018 22.2178 5.77958 22.2178 7.35742C22.2176 8.93514 20.9522 10.2137 19.3916 10.2139C17.9855 10.2139 16.819 9.17586 16.6016 7.81641C16.4197 7.77878 16.2371 7.75684 16.0605 7.75684C15.8471 7.75684 15.6202 7.79012 15.3936 7.84375C15.1651 9.18988 14.0051 10.2139 12.6084 10.2139C11.0478 10.2137 9.78238 8.93516 9.78223 7.35742C9.78223 5.77956 11.0477 4.50015 12.6084 4.5C13.9469 4.5 15.0682 5.44087 15.3604 6.7041C15.6031 6.7546 15.843 6.7871 16.0605 6.78711C16.2431 6.78711 16.4375 6.76416 16.6338 6.72754C16.9174 5.45247 18.0448 4.5 19.3916 4.5Z" fill="#E76927"/>
<path d="M26.1739 10.2143C27.7347 10.2143 29 8.9351 29 7.35714C29 5.77919 27.7347 4.5 26.1739 4.5C24.6131 4.5 23.3478 5.77919 23.3478 7.35714C23.3478 7.92553 23.5119 8.45516 23.795 8.9002C23.5661 9.60095 23.1624 10.5714 22.4863 11.493C21.7129 12.5472 20.8374 13.3353 20.2775 13.7862C19.9987 13.6932 19.7008 13.6429 19.3913 13.6429C17.9974 13.6429 16.8393 14.663 16.6074 16.0051C16.3787 16.0553 16.1508 16.0861 15.9353 16.0861C15.7595 16.0861 15.5782 16.0659 15.397 16.0316C15.1759 14.6765 14.0117 13.6429 12.6087 13.6429C11.0479 13.6429 9.78259 14.922 9.78259 16.5C9.78259 18.078 11.0479 19.3571 12.6087 19.3571C14.0003 19.3571 15.157 18.3402 15.3914 17.0014C15.5777 16.9643 15.7615 16.9423 15.9353 16.9423C16.1469 16.9423 16.378 16.9753 16.6134 17.0285C16.8586 18.354 18.0091 19.3571 19.3913 19.3571C19.6554 19.3571 19.911 19.3205 20.1534 19.252C20.6266 19.6638 21.6575 20.6174 22.5253 21.8105C23.0747 22.5657 23.5105 23.3961 23.8181 24.064C23.5209 24.5163 23.3478 25.0592 23.3478 25.6429C23.3478 27.2208 24.6131 28.5 26.1739 28.5C27.7347 28.5 29 27.2208 29 25.6429C29 24.0649 27.7347 22.7857 26.1739 22.7857C25.8557 22.7857 25.5498 22.8389 25.2644 22.9369C24.7104 22.5099 24.0417 21.9007 23.4658 21.1088C22.5488 19.8482 22.0321 18.5587 21.8214 17.9594C22.0729 17.5322 22.2174 17.0332 22.2174 16.5C22.2174 15.9555 22.0667 15.4466 21.8053 15.0136C22.0967 14.3688 22.654 13.248 23.4262 12.1954C24.0503 11.3448 24.8076 10.606 25.3805 10.1002C25.6322 10.1744 25.8984 10.2143 26.1739 10.2143Z" fill="#181818"/>
<path d="M134.194 21.9421C132.682 21.9421 131.594 21.5772 130.93 20.8474C130.434 20.314 130.187 19.5982 130.187 18.7C130.187 18.4053 130.213 18.0895 130.265 17.7526L131.998 8.00525H135.172L134.605 11.521H140L139.511 14.4895H134.116L133.725 16.8684C133.673 17.1351 133.647 17.3737 133.647 17.5842C133.647 18.4684 134.038 18.9105 134.82 18.9105C135.237 18.9105 135.582 18.721 135.856 18.3421C136.142 17.9631 136.338 17.4579 136.442 16.8263H139.687C139.14 20.2368 137.309 21.9421 134.194 21.9421Z" fill="#181818"/>
<path d="M128.008 18.9526C128.307 18.9526 128.575 18.8825 128.809 18.7421L128.711 21.1211C128.099 21.6684 127.402 21.9421 126.62 21.9421C125.434 21.9421 124.665 21.6474 124.313 21.0579C124.078 20.6649 123.961 20.2509 123.961 19.8158C123.961 19.3667 123.987 18.9737 124.039 18.6368L125.212 11.5211H128.535L127.441 18.1526C127.428 18.2368 127.421 18.314 127.421 18.3842C127.421 18.7632 127.617 18.9526 128.008 18.9526ZM125.603 8.08947C125.603 7.19123 125.786 6.5386 126.151 6.13158C126.529 5.71053 127.108 5.5 127.89 5.5C128.985 5.5 129.532 6.0193 129.532 7.05789C129.532 7.9421 129.343 8.58772 128.966 8.99474C128.601 9.40175 128.021 9.60526 127.226 9.60526C126.144 9.60526 125.603 9.1 125.603 8.08947Z" fill="#181818"/>
<path d="M124.64 6.48947L120.164 14.1316L122.158 21.6474H118.444L116.978 16.0895H115.433L114.515 21.6474H110.996L113.478 6.48947H116.997L115.961 12.8053H117.212L120.926 6.48947H124.64Z" fill="#E76927"/>
<path d="M99.813 21.9421C98.3013 21.9421 97.2131 21.5772 96.5485 20.8474C96.0533 20.314 95.8057 19.5982 95.8057 18.7C95.8057 18.4053 95.8317 18.0895 95.8839 17.7526L97.2131 9.60525L100.79 8.00525L100.224 11.521H105.619L105.13 14.4895H99.7349L99.3439 16.8684C99.2918 17.1351 99.2657 17.3737 99.2657 17.5842C99.2657 18.4684 99.6567 18.9105 100.439 18.9105C100.856 18.9105 101.201 18.721 101.475 18.3421C101.761 17.9631 101.957 17.4579 102.061 16.8263H105.306C104.759 20.2368 102.928 21.9421 99.813 21.9421Z" fill="#181818"/>
<path d="M95.0692 13.6684C95.0692 14.1456 94.9911 14.6088 94.8347 15.0579C94.6913 15.507 94.548 15.8368 94.4046 16.0474L94.1896 16.3421H91.2378C91.5636 16.0193 91.7265 15.6193 91.7265 15.1421C91.7265 14.8895 91.6483 14.686 91.4919 14.5316C91.3486 14.3632 91.1466 14.279 90.8859 14.279C90.4428 14.279 90.0584 14.5175 89.7326 14.9947L88.6379 21.6474H85.3147L86.9763 11.5211H90.0649L89.8303 12.9316C90.5732 11.7947 91.4724 11.2263 92.528 11.2263C93.3751 11.2263 94.0071 11.4439 94.4242 11.8789C94.8542 12.314 95.0692 12.9105 95.0692 13.6684Z" fill="#181818"/>
<path d="M78.7513 21.9421C76.0406 21.9421 74.6853 20.9316 74.6853 18.9105C74.6853 18.6298 74.7114 18.3281 74.7635 18.0053L75.174 15.3947C75.3956 14.0474 75.969 13.0158 76.8943 12.3C77.8326 11.5702 79.0706 11.2053 80.6084 11.2053C83.2279 11.2053 84.5376 12.2719 84.5376 14.4053C84.5376 14.714 84.5115 15.0509 84.4594 15.4158L84.2248 16.9105H78.2626L78.1844 17.3947C78.1584 17.5632 78.1453 17.7175 78.1453 17.8579C78.1453 18.6298 78.5689 19.0158 79.416 19.0158C79.7287 19.0158 79.9959 18.9105 80.2174 18.7C80.439 18.4895 80.5693 18.2439 80.6084 17.9632L83.8534 18.0053C83.4233 20.6298 81.7227 21.9421 78.7513 21.9421ZM81.0971 15.6263C81.1492 15.3877 81.1753 15.1702 81.1753 14.9737C81.1753 14.7632 81.0906 14.5526 80.9212 14.3421C80.7518 14.1316 80.4781 14.0263 80.1002 14.0263C79.7353 14.0263 79.3964 14.1596 79.0836 14.4263C78.7839 14.693 78.5754 15.093 78.4581 15.6263H81.0971Z" fill="#181818"/>
<path d="M70.3226 11.2474C71.6519 11.2474 72.5707 11.6263 73.0789 12.3842C73.4438 12.9035 73.6263 13.5632 73.6263 14.3632C73.6263 14.686 73.5937 15.0298 73.5285 15.3947L73.1376 17.8579C72.916 19.1912 72.4403 20.2088 71.7105 20.9105C70.9807 21.5982 70.0685 21.9421 68.9738 21.9421C67.8791 21.9421 67.1167 21.6263 66.6867 20.9947L65.6311 27.5H62.3079L64.9273 11.521H67.9377L67.84 12.0895C68.4525 11.5281 69.2801 11.2474 70.3226 11.2474ZM68.2896 18.9105C68.6545 18.9105 68.9933 18.7842 69.3061 18.5316C69.6189 18.2789 69.8144 17.9 69.8926 17.3947L70.1467 15.8158C70.1728 15.6754 70.1858 15.5 70.1858 15.2895C70.1858 15.0789 70.1011 14.8544 69.9317 14.6158C69.7622 14.3772 69.469 14.2579 69.052 14.2579C68.3743 14.2579 67.9312 14.4333 67.7227 14.7842L67.1363 18.321C67.3187 18.714 67.7032 18.9105 68.2896 18.9105Z" fill="#181818"/>
<path d="M61.8977 21.6474H58.2618L56.8738 18.7211L54.5281 21.6474H50.8921L55.1145 16.4684L52.5732 11.3737H56.2678L57.5971 14.2579L59.8843 11.3737H63.5789L59.3369 16.4895L61.8977 21.6474Z" fill="#181818"/>
<path d="M49.8132 21.6474H40L42.4826 6.48947H52.2958L51.7485 9.77368H45.4539L45.0043 12.6158H50.2042L49.6568 15.9H44.457L44.066 18.3632H50.3605L49.8132 21.6474Z" fill="#E76927"/>
</svg>
